<svg width="41" height="39" viewBox="0 0 41 39" fill="none" xmlns="http://www.w3.org/2000/svg">
<path d="M0 0H41V4.875H0V0ZM0 34.1251H41V39H0V34.1251ZM34.7046 26.6029L34.3804 24.4823H30.7482L30.1704 26.5859L27.2595 26.5932C29.1324 20.7285 30.5207 16.38 31.4264 13.5574C31.6632 12.8188 32.0844 12.4435 32.7031 12.4483C33.1764 12.4532 33.9499 12.4532 35.0233 12.4483L37.2728 26.598L34.7046 26.6029ZM31.5662 21.5768H33.9071L33.031 16.263L31.5662 21.5768ZM12.8069 12.4459L15.7328 12.4508L11.2098 26.6029L8.2466 26.6005C7.24583 21.5549 6.50968 17.8108 6.04004 15.3758C5.89655 14.6274 5.61141 14.1058 5.05978 13.8596C4.56963 13.6403 3.75335 13.299 2.60909 12.8383V12.4483H7.28497C8.09378 12.4483 8.56529 12.9602 8.71809 14.0083L9.87356 22.0253L12.8069 12.4459ZM19.7527 12.4508L17.4418 26.6005L14.6557 26.5956L16.9666 12.4459L19.7527 12.4508ZM25.4032 12.1875C26.2344 12.1875 27.2855 12.5239 27.8893 12.8383L27.4009 15.7731C26.855 15.4855 25.9568 15.0979 25.202 15.115C24.1024 15.1369 23.4241 15.739 23.4241 16.3166C23.4241 17.2526 24.6019 17.7255 25.817 18.7517C27.2016 19.9217 27.3825 20.9699 27.3657 22.1106C27.347 24.4774 25.817 26.8126 22.5873 26.8126C21.1131 26.7833 20.582 26.6224 19.3818 26.0667L19.8887 23.0052C21.1113 23.673 21.6313 23.8851 22.6749 23.8851C23.6346 23.8851 24.4565 23.3805 24.464 22.5006C24.4677 21.8742 24.1751 21.5646 23.0998 20.7895C22.0245 20.0168 20.5187 18.9467 20.5373 16.792C20.5615 14.0376 22.5649 12.1875 25.4032 12.1875Z" fill="#001018"/>
</svg>
