<svg width="55" height="39" viewBox="0 0 55 39" fill="none" xmlns="http://www.w3.org/2000/svg">
<path d="M0 13H51.7225C52.4444 13 53.1365 13.2283 53.6474 13.6346C54.1578 14.0409 54.4444 14.592 54.4444 15.1667V36.8332C54.4444 37.4078 54.1578 37.959 53.6474 38.3653C53.1365 38.7718 52.4444 39 51.7225 39H2.7222C2.00023 39 1.30781 38.7718 0.797313 38.3653C0.286773 37.959 0 37.4078 0 36.8332V13ZM2.7222 0H43.5558V8.66668H0V2.16668C0 1.59205 0.286773 1.04094 0.797313 0.634595C1.30781 0.22828 2.00023 0 2.7222 0ZM35.3891 23.8333V28.1668H43.5558V23.8333H35.3891Z" fill="#001018"/>
</svg>
